# xmcd
#
# Track frame offsets:
# 150
# 12525
# 34725
# 48000
# 60975
# 77625
# 96975
# 146850
# 166800
# 181350
# 198375
# 211763
#
# Disc length: 3012 seconds
#
#
# Revision: 0
# Processed by: cddbd v1.4PL0 Copyright (c) Steve Scherf et al.
# Submitted via: FreeRIP 2.40 
#
DISCID=9b0bc20c
DTITLE=Joan Baez - Any Day Now
DYEAR=1900
DGENRE=Country
TTITLE0=Love Minus Zero/No Limit
TTITLE1=North Country Blues
TTITLE2=You Ain't Going Nowhere
TTITLE3=Drifter's Escape
TTITLE4=I Pity the Poor Immigrant
TTITLE5=Tears of Rage
TTITLE6=Sad Eyed Lady of the Lowlands
TTITLE7=Love Is Just a Four-Letter Word
TTITLE8=I Dreamed I Saw St. Augustine
TTITLE9=The Walls of Redwing
TTITLE10=Dear Landlord
TTITLE11=One Too Many Mornings
EXTD=LG
EXTT0=
EXTT1=
EXTT2=
EXTT3=
EXTT4=
EXTT5=
EXTT6=
EXTT7=
EXTT8=
EXTT9=
EXTT10=
EXTT11=
PLAYORDER=
